<svg width="221" height="74" viewBox="0 0 221 74" fill="none" xmlns="http://www.w3.org/2000/svg">
<path d="M97.66 27.98C97.66 32.64 100.3 35.2 106.46 35.2C112.04 35.2 114.84 33.06 115.2 29H111.54C111.2 31.28 109.44 32.18 106.46 32.18C102.82 32.18 101.26 30.86 101.26 27.98C101.26 25.12 102.8 23.82 106.46 23.82C109.46 23.82 111.2 24.7 111.54 26.96H115.2C114.84 22.92 112.04 20.8 106.46 20.8C100.3 20.8 97.66 23.34 97.66 27.98ZM133.872 26.14C133.872 23.02 131.692 21 128.512 21H117.512V35H121.112V31.26H126.912L129.172 35H133.412L130.832 30.84C132.712 30.1 133.872 28.42 133.872 26.14ZM121.112 24.02H127.512C128.592 24.02 130.272 24.02 130.272 26.14C130.272 28.24 128.592 28.24 127.512 28.24H121.112V24.02ZM142.092 30.4V35H145.692V30.4L153.612 21H149.272L143.892 27.38L138.512 21H134.172L142.092 30.4ZM166.469 21H155.469V35H159.069V31.26H166.469C169.649 31.26 171.829 29.26 171.829 26.14C171.829 23.02 169.649 21 166.469 21ZM165.469 28.24H159.069V24.02H165.469C166.549 24.02 168.229 24.02 168.229 26.14C168.229 28.24 166.549 28.24 165.469 28.24ZM190.755 21H173.555V24.02H180.355V35H183.955V24.02H190.755V21ZM200.874 35.2C207.014 35.2 209.674 32.62 209.674 27.98C209.674 23.36 207.014 20.8 200.874 20.8C194.714 20.8 192.074 23.34 192.074 27.98C192.074 32.64 194.714 35.2 200.874 35.2ZM200.874 32.18C197.134 32.18 195.674 30.86 195.674 27.98C195.674 25.12 197.114 23.82 200.874 23.82C204.634 23.82 206.074 25.14 206.074 27.98C206.074 30.84 204.614 32.18 200.874 32.18ZM113 59H116.98L109.74 45H104.88L97.66 59H101.62L103.12 56.02H111.5L113 59ZM104.46 53.34L107.32 47.66L110.16 53.34H104.46ZM128.042 45L122.422 56.34L116.802 45H112.762L119.962 59H124.882L132.082 45H128.042ZM143.32 59H147.3L140.06 45H135.2L127.98 59H131.94L133.44 56.02H141.82L143.32 59ZM134.78 53.34L137.64 47.66L140.48 53.34H134.78ZM162.411 45H145.211V48.02H152.011V59H155.611V48.02H162.411V45ZM175.613 59H179.593L172.353 45H167.493L160.273 59H164.233L165.733 56.02H174.113L175.613 59ZM167.073 53.34L169.933 47.66L172.773 53.34H167.073ZM197.814 50.14C197.814 47.02 195.634 45 192.454 45H181.454V59H185.054V55.26H190.854L193.114 59H197.354L194.774 54.84C196.654 54.1 197.814 52.42 197.814 50.14ZM185.054 48.02H191.454C192.534 48.02 194.214 48.02 194.214 50.14C194.214 52.24 192.534 52.24 191.454 52.24H185.054V48.02ZM199.578 54.18C199.578 58.22 202.998 59.2 208.738 59.2C213.918 59.2 217.458 58.44 217.458 54.7C217.458 51.16 214.038 50.86 208.518 50.56C204.438 50.32 203.598 50.12 203.598 49.04C203.598 48 204.438 47.66 207.978 47.66C211.718 47.66 213.258 48.04 213.258 49.58H216.858C216.858 46.12 213.658 44.8 208.378 44.8C203.138 44.8 199.998 45.78 199.998 48.86C199.998 52 202.418 52.96 208.518 53.24C213.058 53.46 213.858 53.66 213.858 54.82C213.858 55.92 212.718 56.34 208.938 56.34C204.378 56.34 203.178 55.66 203.178 54.18H199.578Z" fill="white"/>
<path d="M25.4644 73C25.4004 72.9997 25.339 72.9747 25.2929 72.9303L10.9387 59.1672C10.9059 59.1359 10.8827 59.096 10.8717 59.052L8.75279 50.9139H6.41404C6.36374 50.9142 6.31457 50.899 6.27313 50.8705C6.23168 50.842 6.19995 50.8015 6.18218 50.7544L1.01549 36.9283C0.998275 36.8822 0.995333 36.832 1.00705 36.7842C1.01876 36.7364 1.04458 36.6932 1.08116 36.6603L4.8446 33.2721C4.89044 33.2315 4.94956 33.2091 5.01079 33.2091H6.64188V12.9592C6.64181 12.926 6.64842 12.8931 6.66131 12.8625C6.67421 12.8318 6.69312 12.8041 6.71694 12.781L18.8972 1.06845C18.9207 1.04588 18.9484 1.02822 18.9788 1.01648C19.0091 1.00475 19.0416 0.999177 19.0741 1.0001L33.2379 1.02958L46.7745 1.0135C46.8402 1.01394 46.9032 1.03989 46.9501 1.08587L58.6787 12.7836C58.7017 12.8067 58.7199 12.8341 58.7323 12.8642C58.7447 12.8943 58.7511 12.9266 58.751 12.9592V33.2078H60.4759C60.5273 33.2078 60.5774 33.2238 60.6194 33.2534L65.3558 36.6187C65.4014 36.6512 65.4346 36.6982 65.45 36.752C65.4653 36.8059 65.4619 36.8633 65.4403 36.9149L59.6691 50.7571C59.6503 50.802 59.6187 50.8404 59.5781 50.8673C59.5376 50.8943 59.49 50.9086 59.4413 50.9086H56.7943L55.2396 59.0185C55.2315 59.0695 55.207 59.1165 55.1699 59.1525L41.2795 72.9276C41.2333 72.9739 41.1706 72.9999 41.1052 73H25.4644ZM40.7072 71.8085L45.8203 66.737V50.2022C45.82 50.1506 45.8364 50.1003 45.8672 50.0588L54.9903 37.2312H37.4061L39.7596 49.3364C39.7668 49.372 39.766 49.4088 39.7572 49.4441C39.7484 49.4793 39.7318 49.5121 39.7087 49.5402C39.6853 49.5683 39.656 49.5909 39.6229 49.6064C39.5897 49.6219 39.5536 49.63 39.517 49.63H27.5244C27.4885 49.6299 27.453 49.6221 27.4204 49.6071C27.3878 49.592 27.3588 49.5701 27.3354 49.5428C27.3123 49.5158 27.2954 49.4841 27.2859 49.4498C27.2764 49.4155 27.2745 49.3795 27.2805 49.3445L29.2172 37.2312H10.6198L20.4546 50.0441C20.4877 50.0871 20.5056 50.1399 20.5055 50.1942V66.2706C20.5053 66.325 20.4872 66.3778 20.454 66.4209C20.4209 66.464 20.3744 66.495 20.3219 66.5091L25.8464 71.8072L40.7072 71.8085ZM47.0064 65.5562L54.1164 58.5078L55.7046 50.2237L57.3036 36.0264L47.0064 50.5011V65.5562ZM19.306 65.5428V50.5159L8.08668 35.8883L9.80087 50.2022L11.9573 58.4877L19.306 65.5428ZM58.8033 49.7171L64.0477 37.1522L60.1771 34.3993H58.6948L56.9685 49.7171H58.8033ZM8.53432 49.7171L6.7089 34.3993H5.36864L2.35172 37.1133L7.06541 49.7117L8.53432 49.7171ZM38.3711 48.4452L35.3475 32.8982H31.115L28.6315 48.4452H38.3711ZM55.84 36.0465L57.3143 33.9798L46.2505 27.0788L41.0114 27.0279L36.5457 32.6569L36.5283 32.6757L37.181 36.0344L55.84 36.0465ZM29.4048 36.0465L29.9784 32.4559L25.7593 26.8979L19.3824 26.8429L8.10678 33.9583L9.70571 36.0398L29.4048 36.0465ZM57.5663 32.736V13.3613L47.0144 3.2276V26.146L57.5663 32.736ZM7.83337 32.7293L18.6171 25.9235V3.00512L7.83337 13.3613V32.7293ZM35.7844 31.692L39.5907 26.914L27.2604 26.9019L30.9019 31.692H35.7844ZM45.8229 25.6608V2.19561L33.0369 2.20633L19.8086 2.19695V25.6514L45.8229 25.6608Z" fill="#F1F1F1" stroke="white"/>
<path d="M29.0665 62.8837C29.028 62.8838 28.99 62.8749 28.9556 62.8577C28.9211 62.8405 28.8912 62.8154 28.8682 62.7846L25.7668 58.6123C25.752 58.5942 25.7394 58.5745 25.7293 58.5534C25.7094 58.5096 25.7027 58.461 25.7098 58.4134C25.7169 58.3658 25.7377 58.3214 25.7695 58.2853L28.8695 54.8007C28.8928 54.7746 28.9213 54.7538 28.9532 54.7395C28.985 54.7251 29.0195 54.7177 29.0545 54.7176H37.9672C38.0011 54.7178 38.0347 54.7249 38.0658 54.7385C38.0969 54.7521 38.1249 54.7719 38.1481 54.7966L41.3875 58.2813C41.4202 58.3168 41.442 58.361 41.4501 58.4086C41.4581 58.4562 41.4523 58.5051 41.4331 58.5494C41.4127 58.5945 41.3796 58.6326 41.3379 58.6593L38.1548 62.7859C38.1316 62.8156 38.1019 62.8396 38.068 62.8561C38.0341 62.8726 37.9968 62.8811 37.9591 62.8811L29.0665 62.8837ZM37.5477 61.6923L39.29 59.3964H27.733L29.4753 61.6923H37.5477ZM39.5755 58.095L37.5544 55.9157H29.4847L27.5507 58.095H39.5755Z" fill="#F1F1F1" stroke="white"/>
</svg>
